<?xml version="1.0" standalone="no"?>
<!DOCTYPE svg PUBLIC "-//W3C//DTD SVG 20010904//EN"
 "http://www.w3.org/TR/2001/REC-SVG-20010904/DTD/svg10.dtd">
<svg version="1.0" xmlns="http://www.w3.org/2000/svg"
 width="700.000000pt" height="700.000000pt" viewBox="0 0 700.000000 700.000000"
 preserveAspectRatio="xMidYMid meet">
<metadata>
Created by potrace 1.11, written by Peter Selinger 2001-2013
</metadata>
<g transform="translate(0.000000,700.000000) scale(0.100000,-0.100000)"
fill="#000000" stroke="none">
<path d="M4646 6939 c-223 -33 -425 -138 -587 -306 -131 -137 -210 -276 -261
-463 -19 -73 -23 -109 -23 -250 0 -149 3 -174 28 -265 15 -55 50 -143 76 -196
l49 -96 -1143 -1143 -1143 -1143 -34 26 c-51 39 -183 102 -274 131 -406 126
-860 -19 -1117 -357 -98 -128 -156 -255 -194 -422 -21 -94 -21 -316 0 -410 71
-317 272 -578 552 -715 163 -80 349 -118 516 -107 l86 7 0 -148 c1 -123 5
-163 26 -243 33 -128 76 -226 144 -328 302 -455 909 -593 1384 -315 114 67
285 237 353 352 195 329 195 740 1 1060 l-53 87 1131 1133 c634 634 1138 1130
1145 1127 6 -2 36 -22 65 -44 169 -127 425 -201 652 -188 661 39 1112 677 930
1313 -81 281 -275 511 -538 639 -156 75 -345 113 -508 102 l-85 -7 -1 143 c0
91 -6 167 -16 212 -95 424 -419 737 -836 809 -100 17 -228 19 -325 5z m369
-289 c421 -133 641 -566 499 -982 -13 -40 -24 -82 -24 -95 0 -33 24 -77 55
-101 45 -36 76 -36 182 -1 91 30 108 33 233 33 157 1 222 -13 345 -74 194 -95
344 -279 401 -490 25 -90 25 -291 0 -379 -94 -343 -389 -570 -741 -571 -197 0
-374 72 -520 210 -33 32 -71 63 -84 70 -36 19 -100 14 -132 -9 -47 -35 -2470
-2455 -2490 -2487 -11 -19 -19 -49 -19 -77 0 -37 7 -54 35 -89 150 -187 204
-326 205 -524 0 -213 -71 -388 -217 -537 -109 -110 -233 -178 -387 -212 -104
-23 -271 -16 -371 15 -306 96 -518 363 -542 681 -7 98 6 189 44 302 30 93 27
137 -14 179 -49 52 -85 55 -199 17 -92 -30 -109 -33 -234 -33 -157 -1 -222 13
-345 74 -194 95 -344 279 -401 490 -25 90 -25 291 0 379 94 343 389 570 741
571 185 0 362 -67 499 -188 52 -46 98 -64 144 -56 33 5 176 145 1285 1253 734
732 1255 1259 1263 1278 25 57 18 86 -40 170 -67 99 -88 140 -115 228 -82 264
-17 542 173 742 114 121 221 184 375 224 105 26 295 21 396 -11z"/>
<path d="M3134 3880 c-11 -4 -33 -22 -47 -40 -58 -68 -24 -181 61 -209 148
-47 245 164 112 243 -30 17 -91 20 -126 6z"/>
<path d="M2850 3593 c-23 -8 -689 -674 -706 -705 -29 -56 -7 -134 48 -168 40
-24 104 -26 138 -4 36 24 637 622 671 668 23 31 29 50 29 89 0 44 -4 53 -39
88 -34 34 -44 39 -82 38 -24 0 -51 -3 -59 -6z"/>
</g>
</svg>
